
<svg version="1.1" id="Layer_1" xmlns="http://www.w3.org/2000/svg" xmlns:xlink="http://www.w3.org/1999/xlink" x="0px" y="0px"
	 width="100%" viewBox="0 0 592 400" enable-background="new 0 0 592 400" xml:space="preserve">
<path fill="#000000" opacity="1.000000" stroke="none" 
	d="
M593.000000,349.541931 
	C592.839294,349.965240 592.679749,349.906647 592.517761,349.899323 
	C590.199158,349.794678 591.247314,354.409302 588.565552,353.078766 
	C585.945496,351.778839 587.494324,348.802582 587.568359,346.759430 
	C587.683899,343.573700 585.425964,338.373840 592.582642,338.909088 
	C593.000000,342.361298 593.000000,345.722565 593.000000,349.541931 
z"/>
<path fill="#000000" opacity="1.000000" stroke="none" 
	d="
M267.342438,214.686340 
	C255.752243,202.784897 251.607788,189.243225 257.538116,173.744156 
	C263.295502,158.697128 274.967010,150.888184 290.810608,149.899521 
	C306.868286,148.897507 321.775452,159.212936 327.297913,174.296646 
	C332.836212,189.423538 327.891968,206.467117 315.066559,216.460144 
	C302.482574,226.265045 284.515137,226.748657 271.195831,217.623306 
	C269.962250,216.778137 268.798767,215.830673 267.342438,214.686340 
M313.008362,169.538925 
	C320.559998,178.526169 321.464569,188.584106 317.076233,200.220245 
	C323.287079,193.114609 322.913239,178.290222 317.274597,170.264648 
	C310.238586,160.250168 297.199585,154.945618 286.225952,157.915817 
	C275.064026,160.936951 265.571869,170.405319 265.027863,179.060699 
	C271.986786,159.742065 296.526764,152.552383 313.008362,169.538925 
z"/>
<path fill="#000000" opacity="1.000000" stroke="none" 
	d="
M195.672638,146.143784 
	C196.089676,131.631470 202.622147,124.342453 216.662766,122.525894 
	C220.474686,122.032715 222.964447,121.331345 223.048950,116.392471 
	C223.124603,111.971062 226.845276,109.503105 231.164185,108.845757 
	C239.939850,107.510086 248.754089,107.453049 257.544891,108.775734 
	C262.689423,109.549789 266.160339,112.933792 266.229065,118.098541 
	C266.283142,122.160965 268.249695,122.694839 271.541809,122.681450 
	C289.865814,122.606903 308.185150,122.840599 326.493347,123.730446 
	C337.138428,124.247826 347.792786,124.571701 358.439636,125.056465 
	C360.200531,125.136642 361.944122,125.596848 365.117950,126.112495 
	C361.147217,127.807175 358.379028,127.881882 355.695282,127.997162 
	C337.895935,128.761749 320.098083,129.713074 302.289093,130.063507 
	C274.813171,130.604141 247.328964,130.733856 219.847839,130.992630 
	C208.335388,131.101044 204.443466,134.996948 204.030334,146.613724 
	C203.130981,171.902420 202.111069,197.186813 201.164932,222.473877 
	C201.073227,224.924500 201.152679,227.381531 201.152679,230.143433 
	C198.597946,229.759872 198.651718,228.084274 198.551376,226.451004 
	C197.837341,214.829529 196.805939,203.236389 196.732056,191.567688 
	C196.637192,176.584503 196.046219,161.604462 195.672638,146.143784 
M239.317886,122.049637 
	C245.132767,122.502388 250.959915,123.067657 256.772583,122.283028 
	C258.501190,122.049690 261.471954,122.887878 261.306305,119.811768 
	C261.172913,117.334137 258.983704,116.348984 256.556152,116.342934 
	C248.570404,116.323036 240.584549,116.290100 232.598907,116.314888 
	C229.445648,116.324677 227.716110,117.801102 227.775955,121.233147 
	C231.414581,122.533752 234.944183,121.682701 239.317886,122.049637 
z"/>
<path fill="#000000" opacity="1.000000" stroke="none" 
	d="
M338.857910,179.986710 
	C343.870972,207.121460 325.731323,231.438080 300.674927,235.745804 
	C278.776489,239.510605 257.469757,229.731003 247.201111,208.728607 
	C237.558228,189.006149 242.433075,165.199921 258.957642,151.029358 
	C273.793610,138.306808 290.244263,135.819977 308.313080,142.811081 
	C311.311188,143.971085 311.301178,143.996964 313.935730,147.219330 
	C299.074432,141.534561 284.695465,141.923752 271.170166,150.412247 
	C257.365082,159.076355 250.580429,171.566666 250.996338,188.028336 
	C251.528809,209.103806 268.802979,227.449692 289.692322,228.641785 
	C303.910919,229.453171 315.855865,224.318817 325.275055,213.809204 
	C334.517395,203.496948 337.826508,191.073151 336.359131,177.411362 
	C338.669495,177.107758 338.160187,178.834641 338.857910,179.986710 
z"/>
<path fill="#000000" opacity="1.000000" stroke="none" 
	d="
M369.147522,254.315872 
	C357.772980,254.383667 346.793884,254.137070 335.826996,254.399948 
	C308.838959,255.046829 281.895599,253.534470 254.934113,252.963776 
	C244.790665,252.749054 234.658554,251.956116 224.525391,251.357010 
	C223.331009,251.286377 221.795349,251.715149 220.725555,249.222580 
	C227.003952,248.753693 232.976685,248.150360 238.964386,247.885727 
	C280.245331,246.061279 321.547211,245.444534 362.866913,245.784576 
	C376.805115,245.899292 380.790710,241.685989 381.335175,227.772110 
	C381.920685,212.809814 382.899109,197.862854 383.716736,182.909790 
	C383.770355,181.929565 383.691162,180.883560 384.583374,180.150879 
	C386.092255,180.024292 386.114258,181.198120 386.159241,182.134399 
	C386.939362,198.384689 388.084930,214.631119 388.310150,230.890045 
	C388.491302,243.969177 382.701355,250.516388 369.147522,254.315872 
z"/>
<path fill="#000000" opacity="1.000000" stroke="none" 
	d="
M264.256470,320.255554 
	C259.710083,318.596252 258.853271,314.246948 256.419830,311.203125 
	C255.023224,309.456207 254.446030,306.890778 251.425507,306.495880 
	C249.173706,309.189209 250.363571,312.479248 249.983582,315.452576 
	C249.679611,317.831177 249.761414,320.342987 246.326843,320.207306 
	C243.186203,320.083252 243.146164,317.658173 243.165817,315.514679 
	C243.251251,306.191406 243.489258,296.869659 243.611267,287.546539 
	C243.647156,284.803406 244.958725,283.651917 247.628357,283.705505 
	C251.124954,283.775696 254.638733,283.552826 258.117371,283.818817 
	C262.994141,284.191772 266.713989,286.442657 268.131927,291.435425 
	C269.602264,296.612885 268.219849,301.168396 263.758209,304.110840 
	C261.051971,305.895660 261.089508,307.469055 262.703064,309.778534 
	C264.228271,311.961548 265.662781,314.211304 267.062134,316.478027 
	C268.813995,319.315826 267.697876,320.432373 264.256470,320.255554 
M249.984802,297.228180 
	C250.025223,301.250183 252.821976,301.066467 255.594727,300.890747 
	C258.560913,300.702820 261.276215,300.192291 261.861267,296.517120 
	C262.523987,292.354034 260.309082,289.738770 255.672653,289.335480 
	C250.513733,288.886749 250.048447,289.458130 249.984802,297.228180 
z"/>
<path fill="#000000" opacity="1.000000" stroke="none" 
	d="
M325.715607,152.144287 
	C327.470428,142.039032 332.776947,137.850342 342.400238,138.551407 
	C349.472137,139.066589 350.965820,139.412582 354.494141,141.449081 
	C350.812286,144.154190 346.456848,143.287598 342.559937,144.148132 
	C337.196075,145.332611 334.124878,148.086670 334.245270,152.465210 
	C334.367615,156.917236 337.489563,159.382874 343.290222,159.721115 
	C349.938110,160.108765 356.606750,160.344437 363.216614,161.088409 
	C366.292023,161.434570 369.040558,160.156448 372.485168,160.032135 
	C371.883057,163.507172 369.417908,164.629364 367.010254,165.282150 
	C357.773895,167.786392 348.225555,168.267242 338.818695,167.525818 
	C330.451050,166.866302 326.274200,161.292450 325.715607,152.144287 
z"/>
<path fill="#000000" opacity="1.000000" stroke="none" 
	d="
M219.155792,288.968994 
	C222.716766,299.347839 227.332321,308.948456 230.251968,319.301178 
	C226.291199,321.155334 223.647385,320.500183 222.678543,316.469238 
	C221.513992,311.623993 217.828781,312.275391 214.370026,312.292084 
	C210.795639,312.309296 206.753387,311.361877 205.529495,316.439331 
	C205.375046,317.080017 205.100677,317.703064 204.806046,318.296661 
	C203.682541,320.560120 201.656937,320.727844 199.680496,320.030701 
	C197.274200,319.181854 198.454315,317.292633 198.994614,315.835388 
	C202.349319,306.787567 205.773621,297.765564 209.171494,288.733765 
	C210.014526,286.492920 210.935196,284.377960 213.821594,284.188019 
	C217.023178,283.977325 218.126968,286.147003 219.155792,288.968994 
M218.244385,304.809509 
	C217.025299,301.515289 215.806213,298.221100 214.171234,293.803009 
	C212.170135,298.713654 210.371445,302.166718 209.854233,306.378143 
	C212.905807,306.792389 215.735413,308.160736 218.244385,304.809509 
z"/>
<path fill="#000000" opacity="1.000000" stroke="none" 
	d="
M229.425232,236.228439 
	C221.911957,234.076172 218.819550,230.630753 218.796127,223.932129 
	C218.724533,203.448135 218.823730,182.963501 218.889069,162.479218 
	C218.893127,161.208023 218.606842,159.781158 220.041229,158.653870 
	C221.571640,158.939072 221.787277,160.359253 222.008255,161.530472 
	C225.226028,178.584534 227.199173,195.723999 225.450104,213.116058 
	C225.083969,216.756668 224.765198,220.414536 224.697693,224.069489 
	C224.615891,228.498383 226.310669,231.723572 231.069504,232.898727 
	C233.359314,233.464172 235.995163,233.317612 238.701294,235.590363 
	C235.287155,236.792908 232.521042,236.120941 229.425232,236.228439 
z"/>
<path fill="#000000" opacity="1.000000" stroke="none" 
	d="
M346.813904,317.448242 
	C346.122467,320.202515 344.414581,320.504791 342.446320,320.123779 
	C340.300354,319.708374 340.116760,317.861877 340.114502,316.235992 
	C340.101532,306.936523 340.185699,297.636719 340.266876,288.337311 
	C340.294617,285.158386 341.635345,283.471832 345.141602,283.645386 
	C349.450531,283.858673 353.777679,283.684998 358.096436,283.728333 
	C359.780609,283.745239 361.670319,283.777161 361.768250,286.088623 
	C361.871307,288.521210 360.083435,289.087036 358.099304,289.154694 
	C355.775635,289.233978 353.441772,289.344940 351.124817,289.216614 
	C347.168335,288.997559 346.991241,291.523590 347.011169,294.418793 
	C347.030518,297.233704 346.963867,299.923828 351.012726,299.696930 
	C352.997742,299.585724 354.999054,299.679260 356.988983,299.769165 
	C358.495483,299.837250 359.545654,300.570374 359.536224,302.217133 
	C359.528351,303.593292 358.613831,304.264832 357.370880,304.557892 
	C356.886871,304.671997 356.395447,304.758759 355.903992,304.836578 
	C347.174408,306.219086 347.176025,306.218353 347.015198,315.021637 
	C347.003082,315.685150 346.940582,316.347717 346.813904,317.448242 
z"/>
<path fill="#000000" opacity="1.000000" stroke="none" 
	d="
M394.008667,301.086151 
	C391.578827,305.837128 391.088470,310.582703 391.136963,315.442383 
	C391.161102,317.862396 391.130737,320.328522 387.645813,320.198486 
	C384.350372,320.075500 384.530396,317.542206 384.750305,315.478455 
	C385.626038,307.258820 381.242004,300.814209 377.876678,293.987854 
	C376.365051,290.921661 374.054199,288.171021 373.640778,284.131165 
	C384.522583,282.168549 382.010651,294.113983 387.991974,297.293915 
	C390.893555,294.638977 391.941498,290.693970 393.741547,287.258423 
	C395.558380,283.790955 397.923676,282.875946 402.265228,284.824982 
	C399.528961,290.227173 396.863495,295.489563 394.008667,301.086151 
z"/>
<path fill="#000000" opacity="1.000000" stroke="none" 
	d="
M289.679138,307.982239 
	C289.686584,303.171143 289.538879,298.848236 289.749817,294.542908 
	C289.928345,290.899048 289.014526,288.812561 284.829803,289.145050 
	C282.795410,289.306702 279.957153,289.531799 280.028503,286.354797 
	C280.099884,283.178162 282.927826,283.740631 284.973236,283.716156 
	C290.615295,283.648621 296.259064,283.702484 301.902008,283.732330 
	C303.859100,283.742676 305.738281,284.071472 305.594727,286.624908 
	C305.471283,288.821289 303.728363,289.308105 301.988281,289.091858 
	C296.893127,288.458679 295.821106,291.032043 296.017822,295.527924 
	C296.307800,302.154266 296.125793,308.802582 296.087921,315.441223 
	C296.074402,317.811829 296.095306,320.379181 292.607880,320.209991 
	C289.397461,320.054199 289.736603,317.580109 289.691742,315.448669 
	C289.642822,313.126068 289.679871,310.801636 289.679138,307.982239 
z"/>
<path fill="#000000" opacity="1.000000" stroke="none" 
	d="
M318.660339,298.847595 
	C318.686523,294.710266 318.696014,291.050446 318.738800,287.391022 
	C318.759521,285.619781 319.073120,284.020355 321.319672,283.845093 
	C323.645203,283.663666 324.856659,284.990387 324.879059,287.065613 
	C324.986847,297.044067 324.985535,307.024261 324.941498,317.003448 
	C324.932037,319.146759 323.766754,320.363739 321.454376,320.277496 
	C318.783112,320.177856 318.014038,318.281952 318.037994,316.214447 
	C318.103210,310.583069 318.432617,304.954803 318.660339,298.847595 
z"/>
<path fill="#000000" opacity="1.000000" stroke="none" 
	d="
M287.290924,341.797729 
	C288.167969,343.304077 288.184906,345.113556 290.108734,345.327789 
	C291.946655,344.602783 291.981110,342.703735 292.777008,341.324463 
	C293.470825,340.122162 294.268585,338.995331 295.817383,339.220520 
	C297.393738,339.449646 297.873993,340.776581 298.022644,342.149597 
	C298.146942,343.297913 298.117737,344.466705 298.101532,345.625671 
	C297.984100,354.033936 297.054138,354.835083 288.772369,353.399353 
	C287.635193,353.202179 286.673096,352.875366 285.438385,353.285461 
	C281.841522,354.480225 281.482178,352.059906 281.819763,349.513458 
	C282.100952,347.392029 282.898102,345.353363 282.413910,343.142700 
	C282.070801,341.576172 281.243195,339.587250 283.458069,338.892365 
	C285.397308,338.283997 286.377777,339.949158 287.290924,341.797729 
z"/>
<path fill="#000000" opacity="1.000000" stroke="none" 
	d="
M138.597046,339.229889 
	C140.358795,340.102997 140.792557,341.645874 141.711166,342.889374 
	C143.909012,342.630585 143.233856,339.019958 145.856079,339.330658 
	C146.876373,341.540466 145.440186,351.288452 143.838226,352.740662 
	C142.624176,353.841187 141.338882,353.779144 140.412674,352.464630 
	C139.671555,351.412781 139.241608,350.141693 138.707657,349.038391 
	C138.158051,349.073700 137.783386,348.987976 137.545700,349.130554 
	C135.793900,350.181641 136.578979,354.007233 133.443604,353.325409 
	C130.553894,352.696991 130.903519,349.696350 130.386475,347.560059 
	C129.752930,344.942444 127.890434,342.352692 129.596329,339.463745 
	C132.787567,338.731689 132.830368,341.730530 134.287766,343.281128 
	C135.484634,341.734222 135.309158,338.827942 138.597046,339.229889 
z"/>
<path fill="#000000" opacity="1.000000" stroke="none" 
	d="
M188.027954,353.166443 
	C186.567856,352.496429 186.113556,349.796478 183.937775,352.284302 
	C181.895782,354.619141 180.259293,352.921204 180.020950,350.595367 
	C179.720230,347.660950 179.511810,344.561554 180.134933,341.724762 
	C181.044052,337.585968 184.637512,338.490845 187.443878,339.125336 
	C190.213120,339.751434 192.667160,341.628021 191.260101,344.781830 
	C190.196213,347.166443 189.334366,348.953491 190.609238,351.590759 
	C191.492615,353.418152 189.797867,353.668213 188.027954,353.166443 
z"/>
<path fill="#000000" opacity="1.000000" stroke="none" 
	d="
M495.990326,338.780426 
	C502.915253,339.466949 504.390900,341.473083 501.534912,346.817749 
	C500.173706,349.365082 502.914154,350.795135 502.152252,352.930939 
	C499.197906,354.602325 498.701141,351.385071 497.066437,350.342804 
	C495.423676,350.528351 495.874298,353.170990 493.950653,353.034973 
	C490.224091,348.813904 491.143890,340.501312 495.990326,338.780426 
z"/>
<path fill="#000000" opacity="1.000000" stroke="none" 
	d="
M337.892273,347.328613 
	C339.300385,350.187469 340.910217,351.650879 343.636047,349.619995 
	C343.898987,347.500336 340.826447,348.116272 341.360992,345.833252 
	C343.700195,344.770599 346.333374,343.755737 348.184875,346.606628 
	C349.631165,348.833588 346.748993,352.643097 343.337555,353.469757 
	C339.064911,354.505096 335.030273,352.221710 333.983856,348.176086 
	C333.026245,344.473785 335.035065,340.427155 338.449799,339.179718 
	C342.450928,337.718109 345.792694,339.264679 347.517059,343.654572 
	C344.150696,344.469727 338.076874,338.231750 337.892273,347.328613 
z"/>
<path fill="#000000" opacity="1.000000" stroke="none" 
	d="
M458.254028,345.966888 
	C457.769257,348.705902 459.710907,352.168793 456.722534,353.084656 
	C453.692719,354.013214 453.426941,350.000763 451.717499,348.393951 
	C451.477020,348.167969 451.230011,347.948914 450.821198,347.576508 
	C448.871460,348.960388 450.835510,352.354492 448.069092,353.238831 
	C446.121613,351.147400 445.033997,341.715820 446.585022,339.959076 
	C448.026367,338.326508 449.186523,339.312988 450.313721,340.468048 
	C451.787750,341.978546 452.191406,344.323608 454.173798,345.533752 
	C455.864899,343.774841 453.757233,340.666779 456.695831,339.302856 
	C459.133423,340.881348 457.923431,343.420502 458.254028,345.966888 
z"/>
<path fill="#000000" opacity="1.000000" stroke="none" 
	d="
M401.925781,348.127350 
	C403.652344,350.705811 405.474579,351.397766 407.677124,349.633148 
	C408.105469,347.511444 405.664185,347.874756 405.494385,346.310120 
	C406.672607,344.462830 408.590698,344.828949 410.288147,345.167877 
	C412.819641,345.673309 412.736694,347.652435 412.035858,349.479828 
	C410.601318,353.220490 407.439758,354.199036 403.905060,353.610474 
	C399.847992,352.934967 398.040405,349.943512 398.013275,346.072083 
	C397.987122,342.338379 399.864380,339.631744 403.689636,338.951843 
	C407.363190,338.298920 410.294739,339.322876 411.953186,343.660095 
	C401.962250,342.262848 401.962250,342.262848 401.925781,348.127350 
z"/>
<path fill="#000000" opacity="1.000000" stroke="none" 
	d="
M309.575439,350.958801 
	C310.377777,347.206879 310.824310,343.695801 313.056335,340.826996 
	C314.172333,339.392609 316.038574,338.119476 317.192719,339.823761 
	C319.884857,343.799072 322.247131,348.090942 322.246735,354.040283 
	C318.189026,351.972687 314.881134,349.956970 311.329285,353.441376 
	C310.467407,354.286896 309.490601,352.638519 309.575439,350.958801 
z"/>
<path fill="#000000" opacity="1.000000" stroke="none" 
	d="
M235.845184,341.114197 
	C238.247162,344.840942 238.853882,348.425049 235.779556,351.457520 
	C233.448044,353.757263 230.252396,354.681763 226.979980,353.625580 
	C223.604401,352.536072 225.158920,349.467987 224.784805,347.189606 
	C224.758179,347.027374 224.755936,346.853241 224.782700,346.691315 
	C225.197052,344.184357 223.435120,340.793335 226.256470,339.341949 
	C229.320694,337.765656 232.757416,338.460815 235.845184,341.114197 
M233.337418,344.326965 
	C232.281555,342.925507 230.666229,341.465057 229.274689,342.851410 
	C227.245010,344.873474 227.963745,347.596222 228.852081,350.075104 
	C233.404297,349.363953 233.404297,349.363953 233.337418,344.326965 
z"/>
<path fill="#000000" opacity="1.000000" stroke="none" 
	d="
M573.760376,341.382843 
	C575.179138,343.275879 575.309631,345.097076 575.114380,346.944000 
	C574.627075,351.553345 570.674622,354.575439 566.383728,353.677551 
	C562.158630,352.793457 559.528198,348.381287 560.676697,344.104462 
	C561.784424,339.979218 565.879150,337.726746 570.070984,339.099030 
	C571.296082,339.500122 572.356384,340.404877 573.760376,341.382843 
M564.089172,346.461487 
	C564.327698,348.950714 565.523376,350.693756 568.178650,350.442047 
	C570.227783,350.247803 571.277649,348.565979 571.545471,346.613037 
	C571.831482,344.526611 570.854370,342.935333 568.825073,342.452087 
	C566.227417,341.833496 564.750610,343.249023 564.089172,346.461487 
z"/>
<path fill="#000000" opacity="1.000000" stroke="none" 
	d="
M106.724991,339.193329 
	C111.176949,338.102295 114.349495,339.252869 116.236359,343.135345 
	C117.709724,346.166992 117.184662,349.091614 115.010223,351.491913 
	C112.786324,353.946808 109.844002,354.340790 106.750549,353.248627 
	C103.907120,352.244751 102.621178,349.959747 102.235657,347.171906 
	C101.748505,343.649109 103.225754,341.036530 106.724991,339.193329 
M111.394730,349.826477 
	C113.293076,348.084900 114.226608,346.064270 112.574341,343.735962 
	C111.379417,342.052155 109.545059,341.687317 107.737724,342.657288 
	C106.127220,343.521606 105.491837,345.191467 105.908554,346.890289 
	C106.506248,349.326996 107.768837,351.198883 111.394730,349.826477 
z"/>
<path fill="#000000" opacity="1.000000" stroke="none" 
	d="
M514.323853,350.961548 
	C515.609009,347.556305 516.775208,344.470581 518.071960,341.440765 
	C518.897400,339.512207 520.744263,338.003571 522.136292,340.112274 
	C524.677612,343.961945 527.131958,348.102264 526.895264,354.220245 
	C522.907715,351.369019 519.474365,350.183197 515.856384,353.216705 
	C515.176819,353.786407 514.291016,352.414948 514.323853,350.961548 
z"/>
<path fill="#000000" opacity="1.000000" stroke="none" 
	d="
M159.944794,339.989441 
	C162.999710,338.190552 165.621338,338.393311 168.226257,339.759003 
	C167.627899,342.512177 165.113373,341.623688 164.220566,343.103241 
	C163.946747,345.525543 167.308731,344.149750 167.406509,346.503784 
	C167.311279,348.205841 164.417709,347.489594 164.164566,349.388763 
	C164.451309,351.477814 167.395630,350.219727 167.790314,352.682953 
	C165.905563,354.479218 163.423950,354.281860 161.158905,353.603271 
	C158.506165,352.808563 158.953720,350.235565 158.863510,348.140381 
	C158.750046,345.505219 158.536682,342.843048 159.944794,339.989441 
z"/>
<path fill="#000000" opacity="1.000000" stroke="none" 
	d="
M80.416862,340.662262 
	C82.782738,337.798401 85.481522,338.478851 87.894867,339.500610 
	C91.368027,340.971008 91.401535,345.358002 87.933159,347.375824 
	C86.048393,348.472351 84.034317,349.078827 83.852234,351.751160 
	C83.778137,352.838409 82.833656,353.471069 81.676277,353.231934 
	C80.532799,352.995667 80.070930,352.024902 80.071632,351.000885 
	C80.073898,347.691650 80.187210,344.382538 80.416862,340.662262 
z"/>
<path fill="#000000" opacity="1.000000" stroke="none" 
	d="
M22.218512,351.672974 
	C21.069912,352.640045 20.185501,353.611481 18.947067,352.690674 
	C18.053875,352.026550 17.989883,350.947693 18.378929,349.991699 
	C19.618811,346.944855 20.777452,343.846863 22.284088,340.932312 
	C23.530642,338.520844 25.743071,338.445892 26.749659,340.858398 
	C28.350052,344.694122 30.687538,348.401825 30.656338,352.895111 
	C27.422186,354.223755 25.672590,348.786438 22.218512,351.672974 
z"/>
<path fill="#000000" opacity="1.000000" stroke="none" 
	d="
M476.361389,353.806976 
	C473.719208,353.808167 470.784271,354.515076 470.291290,351.383240 
	C469.685181,347.532288 468.558319,343.088867 471.272583,339.905701 
	C473.200348,337.644897 476.624512,338.318878 479.358795,339.690735 
	C479.246735,342.634705 475.831268,340.630676 475.476776,342.408569 
	C474.974976,345.186462 478.199554,344.276306 478.426483,346.129639 
	C478.133026,348.055573 475.021851,346.864838 475.071899,349.195160 
	C475.242401,351.765076 478.461823,350.022644 479.166870,352.344879 
	C479.188782,353.698944 477.770599,353.479736 476.361389,353.806976 
z"/>
<path fill="#000000" opacity="1.000000" stroke="none" 
	d="
M209.463089,353.806274 
	C206.849701,353.748688 203.749191,354.673370 203.235825,351.627045 
	C202.566147,347.653198 201.390091,343.048157 204.081604,339.685547 
	C205.717178,337.642181 209.155411,338.255463 211.667374,339.776733 
	C211.376175,342.421844 208.294296,341.309052 207.708359,343.265167 
	C207.845413,345.568024 210.870499,344.046143 211.326355,346.218445 
	C211.315186,348.398071 207.959244,347.245911 207.683640,349.357239 
	C211.543793,352.094452 211.543793,352.094452 209.463089,353.806274 
z"/>
<path fill="#000000" opacity="1.000000" stroke="none" 
	d="
M367.700714,350.965942 
	C369.842560,352.161255 369.510437,353.305664 367.705566,353.647156 
	C365.341461,354.094482 362.105896,354.881195 361.248199,351.846893 
	C360.227814,348.236786 359.774689,343.958069 361.383453,340.618805 
	C363.044647,337.170715 366.488464,338.436493 369.354736,339.794922 
	C368.826050,342.683533 365.466766,341.112915 364.796082,343.291931 
	C364.902740,345.354034 367.463348,344.372406 368.081848,346.204193 
	C368.672028,347.677612 360.182404,348.345123 367.700714,350.965942 
z"/>
<path fill="#000000" opacity="1.000000" stroke="none" 
	d="
M430.916138,350.868195 
	C432.578156,351.330292 434.178925,351.909760 432.301575,353.370972 
	C429.662811,355.424835 425.190430,353.335968 424.902649,350.041443 
	C424.744720,348.233795 424.793671,346.404083 424.817902,344.585236 
	C424.899719,338.442383 427.318298,337.148499 433.286224,340.056122 
	C432.988037,343.006561 428.950928,340.434021 428.560303,343.274841 
	C428.836365,345.508209 431.673615,344.078094 432.359222,346.078613 
	C432.261505,348.225952 428.255859,346.795807 428.664825,349.565735 
	C428.811432,350.558899 429.765594,350.668030 430.916138,350.868195 
z"/>
<path fill="#000000" opacity="1.000000" stroke="none" 
	d="
M545.631348,343.182312 
	C544.507935,346.657349 546.505188,350.366577 543.600159,353.480804 
	C539.524414,349.723938 545.038757,342.812622 537.925964,340.606415 
	C541.644775,337.684082 544.795532,339.084930 547.697632,339.007294 
	C548.775452,341.593384 546.294800,341.599274 545.631348,343.182312 
z"/>
<path fill="#000000" opacity="1.000000" stroke="none" 
	d="
M265.807526,346.867828 
	C266.400085,343.938324 264.530792,339.370850 268.185852,339.534180 
	C271.566040,339.685272 269.759552,344.185516 269.991241,346.753784 
	C270.201569,349.085602 270.324371,351.678375 267.923676,353.548157 
	C265.030548,351.975494 266.138306,349.401520 265.807526,346.867828 
z"/>
<path fill="#000000" opacity="1.000000" stroke="none" 
	d="
M42.456318,343.319122 
	C42.660034,341.433350 41.894871,339.178070 44.466900,339.283234 
	C46.438522,339.363892 46.296207,341.298126 46.328945,342.751160 
	C46.384518,345.217651 46.375252,347.686829 46.333153,350.153839 
	C46.310669,351.471558 46.307396,353.035797 44.533405,353.144043 
	C42.504219,353.267822 42.176876,351.619476 42.163170,350.095001 
	C42.144028,347.965363 42.332249,345.833862 42.456318,343.319122 
z"/>
<path fill="#000000" opacity="1.000000" stroke="none" 
	d="
M387.735168,153.952820 
	C387.127045,156.133972 387.124023,158.245010 384.920105,159.551590 
	C382.116272,157.538300 382.108978,154.941711 384.019806,152.564667 
	C385.330017,150.934784 387.225006,150.667969 387.735168,153.952820 
z"/>
</svg>